<svg width="80" height="12" viewBox="0 0 80 12" fill="none" xmlns="http://www.w3.org/2000/svg">
<path d="M6.86495 1.75531L7.74495 3.51531C7.86495 3.76031 8.18495 3.99531 8.45495 4.04031L10.05 4.30531C11.07 4.47531 11.31 5.21531 10.575 5.94531L9.33495 7.18531C9.12495 7.39531 9.00995 7.80031 9.07495 8.09031L9.42995 9.62531C9.70995 10.8403 9.06495 11.3103 7.98995 10.6753L6.49495 9.79031C6.22495 9.63031 5.77995 9.63031 5.50495 9.79031L4.00995 10.6753C2.93995 11.3103 2.28995 10.8353 2.56995 9.62531L2.92495 8.09031C2.98995 7.80031 2.87495 7.39531 2.66495 7.18531L1.42495 5.94531C0.694954 5.21531 0.929955 4.47531 1.94995 4.30531L3.54495 4.04031C3.80995 3.99531 4.12995 3.76031 4.24995 3.51531L5.12995 1.75531C5.60995 0.800313 6.38995 0.800313 6.86495 1.75531Z" fill="#FCD240"/>
<path d="M23.865 1.75531L24.745 3.51531C24.865 3.76031 25.185 3.99531 25.455 4.04031L27.05 4.30531C28.07 4.47531 28.31 5.21531 27.575 5.94531L26.335 7.18531C26.125 7.39531 26.01 7.80031 26.075 8.09031L26.43 9.62531C26.71 10.8403 26.065 11.3103 24.99 10.6753L23.495 9.79031C23.225 9.63031 22.78 9.63031 22.505 9.79031L21.01 10.6753C19.94 11.3103 19.29 10.8353 19.57 9.62531L19.925 8.09031C19.99 7.80031 19.875 7.39531 19.665 7.18531L18.425 5.94531C17.695 5.21531 17.93 4.47531 18.95 4.30531L20.545 4.04031C20.81 3.99531 21.13 3.76031 21.25 3.51531L22.13 1.75531C22.61 0.800313 23.39 0.800313 23.865 1.75531Z" fill="#FCD240"/>
<path d="M40.865 1.75531L41.745 3.51531C41.865 3.76031 42.185 3.99531 42.455 4.04031L44.05 4.30531C45.07 4.47531 45.31 5.21531 44.575 5.94531L43.335 7.18531C43.125 7.39531 43.01 7.80031 43.075 8.09031L43.43 9.62531C43.71 10.8403 43.065 11.3103 41.99 10.6753L40.495 9.79031C40.225 9.63031 39.78 9.63031 39.505 9.79031L38.01 10.6753C36.94 11.3103 36.29 10.8353 36.57 9.62531L36.925 8.09031C36.99 7.80031 36.875 7.39531 36.665 7.18531L35.425 5.94531C34.695 5.21531 34.93 4.47531 35.95 4.30531L37.545 4.04031C37.81 3.99531 38.13 3.76031 38.25 3.51531L39.13 1.75531C39.61 0.800313 40.39 0.800313 40.865 1.75531Z" fill="#FCD240"/>
<path d="M57.865 1.75531L58.745 3.51531C58.865 3.76031 59.185 3.99531 59.455 4.04031L61.05 4.30531C62.07 4.47531 62.31 5.21531 61.575 5.94531L60.335 7.18531C60.125 7.39531 60.01 7.80031 60.075 8.09031L60.43 9.62531C60.71 10.8403 60.065 11.3103 58.99 10.6753L57.495 9.79031C57.225 9.63031 56.78 9.63031 56.505 9.79031L55.01 10.6753C53.94 11.3103 53.29 10.8353 53.57 9.62531L53.925 8.09031C53.99 7.80031 53.875 7.39531 53.665 7.18531L52.425 5.94531C51.695 5.21531 51.93 4.47531 52.95 4.30531L54.545 4.04031C54.81 3.99531 55.13 3.76031 55.25 3.51531L56.13 1.75531C56.61 0.800313 57.39 0.800313 57.865 1.75531Z" fill="#FCD240"/>
<path d="M74.865 1.75531L75.745 3.51531C75.865 3.76031 76.185 3.99531 76.455 4.04031L78.05 4.30531C79.07 4.47531 79.31 5.21531 78.575 5.94531L77.335 7.18531C77.125 7.39531 77.01 7.80031 77.075 8.09031L77.43 9.62531C77.71 10.8403 77.065 11.3103 75.99 10.6753L74.495 9.79031C74.225 9.63031 73.78 9.63031 73.505 9.79031L72.01 10.6753C70.94 11.3103 70.29 10.8353 70.57 9.62531L70.925 8.09031C70.99 7.80031 70.875 7.39531 70.665 7.18531L69.425 5.94531C68.695 5.21531 68.93 4.47531 69.95 4.30531L71.545 4.04031C71.81 3.99531 72.13 3.76031 72.25 3.51531L73.13 1.75531C73.61 0.800313 74.39 0.800313 74.865 1.75531Z" fill="#FCD240"/>
</svg>
